<?xml version="1.0" encoding="utf-8"?>
<svg version="1.1" baseProfile="tiny" id="Layer_1" xmlns="http://www.w3.org/2000/svg" xmlns:xlink="http://www.w3.org/1999/xlink" x="0px" y="0px" viewBox="0 0 15 15.995" xml:space="preserve">
<path fill-rule="evenodd" fill="#8494A3" d="M14.5,4.998h-14c-0.275,0-0.5-0.225-0.5-0.5v-1c0-0.274,0.225-0.5,0.5-0.5H4V2.444
	c0,0,0-0.003,0-0.005C4,2.418,4,2.3,4,1.999C4,1,4,0,6,0s2,0,3,0s2,0,2,1.999v1h3.5c0.275,0,0.5,0.225,0.5,0.5v1
	C15,4.773,14.775,4.998,14.5,4.998z M9,1.999H6v1h3V1.999z M4,6.084v7.411c0,0.275,0.225,0.5,0.5,0.5s0.5-0.225,0.5-0.5V6.084
	L4.982,5.998h2.035L7,6.084v7.411c0,0.275,0.225,0.5,0.5,0.5s0.5-0.225,0.5-0.5V6.084L7.982,5.998h2.035L10,6.084v7.411
	c0,0.275,0.225,0.5,0.5,0.5c0.275,0,0.5-0.225,0.5-0.5V6.084l-0.018-0.086H13v9.497c0,0.275-0.225,0.5-0.5,0.5h-10
	c-0.275,0-0.5-0.225-0.5-0.5V5.998h2.018L4,6.084z"/>
</svg>
